<svg width="78" height="78" viewBox="0 0 78 78" fill="none" xmlns="http://www.w3.org/2000/svg">
<path fill-rule="evenodd" clip-rule="evenodd" d="M39 78C60.5391 78 78 60.5391 78 39C78 17.4609 60.5391 0 39 0C17.4609 0 0 17.4609 0 39C0 60.5391 17.4609 78 39 78ZM19.5 25C19.5 23.8954 20.3954 23 21.5 23H56.5C57.6046 23 58.5 23.8954 58.5 25V27.5L39 38L19.5 27.5V25ZM19.5 32.5L39 42.5L58.5 32.5V51.5C58.5 53.1569 57.1569 54.5 55.5 54.5H22.5C20.8431 54.5 19.5 53.1569 19.5 51.5V32.5Z" fill="white"/>
</svg>
